<?xml version="1.0" standalone="no"?>
<!DOCTYPE svg PUBLIC "-//W3C//DTD SVG 20010904//EN"
 "http://www.w3.org/TR/2001/REC-SVG-20010904/DTD/svg10.dtd">
<svg version="1.0" xmlns="http://www.w3.org/2000/svg"
 width="448.000000pt" height="488.000000pt" viewBox="0 0 448.000000 488.000000"
 preserveAspectRatio="xMidYMid meet">

<g transform="translate(0.000000,488.000000) scale(0.100000,-0.100000)"
fill="#000000" stroke="none">
<path d="M2135 4514 c-47 -24 -86 -65 -106 -112 -35 -80 -21 -143 51 -221 22
-25 41 -56 42 -70 3 -49 -4 -96 -15 -103 -7 -4 -267 -8 -578 -8 -596 0 -588 1
-685 -45 -65 -30 -122 -103 -150 -190 -18 -58 -19 -106 -19 -1195 0 -1259 -4
-1175 67 -1385 33 -98 92 -213 113 -221 7 -3 33 14 58 38 68 65 117 109 172
153 28 22 52 43 55 46 15 19 228 152 305 190 280 139 609 205 897 179 152 -13
328 -48 413 -80 318 -120 487 -226 740 -462 58 -54 80 -69 92 -62 42 27 124
239 158 409 13 71 15 216 13 1230 l-3 1150 -28 55 c-45 87 -100 134 -198 170
-51 19 -82 20 -617 20 -369 0 -570 4 -583 10 -14 8 -19 21 -19 56 0 52 9 72
60 134 52 63 65 107 50 172 -14 55 -76 129 -126 148 -39 15 -125 12 -159 -6z
m890 -1127 c48 -21 91 -61 112 -102 36 -69 43 -158 43 -582 0 -428 -5 -490
-45 -571 -18 -35 -77 -86 -119 -102 -18 -6 -295 -10 -802 -10 -745 0 -776 1
-813 19 -50 26 -107 91 -120 138 -14 50 -14 1001 0 1062 20 87 93 148 194 162
28 4 379 6 780 5 680 -1 733 -2 770 -19z"/>
<path d="M1648 3083 c-32 -5 -78 -56 -78 -85 0 -33 38 -85 67 -93 44 -11 184
-16 236 -9 98 13 140 94 83 161 -23 27 -25 27 -152 29 -71 1 -141 0 -156 -3z"/>
<path d="M2525 3083 c-30 -7 -63 -42 -70 -74 -8 -36 18 -86 53 -101 37 -16
260 -15 299 1 71 29 69 131 -2 166 -24 11 -63 15 -147 14 -62 -1 -122 -3 -133
-6z"/>
<path d="M2005 2578 c-72 -39 -72 -129 2 -167 13 -6 93 -11 206 -12 209 -1
235 6 264 66 15 31 15 38 2 61 -30 58 -55 64 -264 64 -119 -1 -197 -5 -210
-12z"/>
<path d="M383 3293 c-57 -20 -127 -84 -148 -135 -15 -38 -17 -87 -17 -419 0
-368 0 -376 22 -420 29 -57 56 -86 102 -110 48 -24 147 -36 176 -20 l22 12 0
539 c0 605 4 571 -73 569 -23 -1 -61 -8 -84 -16z"/>
<path d="M3912 3298 c-17 -17 -17 -1089 0 -1106 21 -21 110 -14 165 13 56 28
115 101 133 165 6 20 10 180 10 380 0 303 -2 351 -17 395 -25 70 -86 129 -156
149 -65 19 -118 21 -135 4z"/>
<path d="M2035 1334 c-202 -21 -464 -118 -655 -242 -123 -79 -283 -225 -349
-318 -23 -33 -23 -34 -6 -61 29 -44 117 -127 203 -191 65 -48 174 -108 297
-163 42 -18 181 -60 234 -69 194 -36 675 -35 889 1 290 49 535 178 735 388
l59 61 -20 27 c-21 29 -131 136 -216 211 -117 102 -337 227 -496 282 -174 59
-245 71 -445 75 -104 2 -208 1 -230 -1z"/>
</g>
</svg>
